<svg xmlns="http://www.w3.org/2000/svg" width="512" height="512" viewBox="0 0 135.46666 135.46666"><path d="m136.844 279.049 120.92-120.109L378.047 279.2l-32.482 32.433-87.92-87.904-88.38 87.787z" style="fill:#5f5f5f;fill-opacity:1;stroke-width:1.00035" transform="matrix(.26458 0 0 .26458 0 0)"/><path d="M258.799 49.148a206.326 206.326 0 0 0-139.041 51.815 206.315 206.315 0 0 0-69.172 141.92 206.322 206.322 0 0 0 51.434 149.27 206.321 206.321 0 0 0 141.916 69.185 206.321 206.321 0 0 0 149.273-51.422 206.32 206.32 0 0 0 69.197-141.908l.004-.07v-.014a206.319 206.319 0 0 0-51.459-149.246 206.322 206.322 0 0 0-141.928-69.162 206.336 206.336 0 0 0-9.994-.36v-.006zm-.451 40.315a165.945 165.945 0 0 1 122.416 55.941 165.947 165.947 0 0 1 41.402 120.088l-.006.06v.01a165.946 165.946 0 0 1-55.672 114.16 165.944 165.944 0 0 1-120.098 41.372 165.95 165.95 0 0 1-114.18-55.664 165.943 165.943 0 0 1-41.38-120.094 165.945 165.945 0 0 1 55.652-114.183 165.952 165.952 0 0 1 111.866-41.69z" style="fill:#5f5f5f;fill-opacity:1;fill-rule:evenodd" transform="matrix(.26458 0 0 .26458 0 0)"/></svg>